<?xml version="1.0" standalone="no"?>
<!DOCTYPE svg PUBLIC "-//W3C//DTD SVG 20010904//EN"
 "http://www.w3.org/TR/2001/REC-SVG-20010904/DTD/svg10.dtd">
<svg version="1.0" xmlns="http://www.w3.org/2000/svg"
 width="512.000000pt" height="512.000000pt" viewBox="0 0 512.000000 512.000000"
 preserveAspectRatio="xMidYMid meet">
<metadata>
Created by potrace 1.11, written by Peter Selinger 2001-2013
</metadata>
<g transform="translate(0.000000,512.000000) scale(0.100000,-0.100000)"
fill="#000000" stroke="none">
<path d="M1795 5079 c-133 -11 -185 -19 -304 -45 -640 -143 -1148 -599 -1351
-1214 -268 -810 0 -1819 693 -2615 81 -93 295 -306 382 -380 39 -33 72 -62 75
-65 3 -4 61 -48 130 -98 69 -51 130 -96 135 -100 90 -67 345 -208 535 -295
172 -79 512 -180 685 -203 28 -4 58 -8 69 -10 129 -23 481 -22 621 2 17 2 57
9 90 15 217 37 481 141 675 266 284 184 506 435 655 738 48 99 107 249 120
308 2 12 13 57 24 100 11 43 23 102 26 130 4 29 8 54 10 57 5 10 18 207 18
290 0 154 -11 275 -39 430 -9 47 -18 99 -21 115 -3 17 -20 84 -39 150 -339
1184 -1484 2224 -2644 2401 -25 3 -52 8 -60 9 -89 17 -357 24 -485 14z"/>
</g>
</svg>
