<?xml version="1.0" standalone="no"?>
<!DOCTYPE svg PUBLIC "-//W3C//DTD SVG 20010904//EN"
 "http://www.w3.org/TR/2001/REC-SVG-20010904/DTD/svg10.dtd">
<svg version="1.0" xmlns="http://www.w3.org/2000/svg"
 width="600.000000pt" height="600.000000pt" viewBox="0 0 600.000000 600.000000"
 preserveAspectRatio="xMidYMid meet">
<metadata>
Created by potrace 1.11, written by Peter Selinger 2001-2013
</metadata>
<g transform="translate(0.000000,600.000000) scale(0.100000,-0.100000)"
fill="#000000" stroke="none">
<path d="M2759 5966 c-2 -2 -42 -9 -89 -15 -185 -24 -241 -34 -393 -72 -517
-129 -984 -396 -1370 -783 -738 -740 -1027 -1797 -771 -2819 95 -378 269 -739
510 -1057 507 -669 1269 -1090 2099 -1161 293 -25 321 -24 665 18 167 20 433
85 605 148 813 295 1479 960 1770 1769 55 154 109 343 126 444 38 228 49 353
49 573 0 223 -8 322 -45 535 -87 507 -346 1036 -695 1424 -42 47 -85 96 -96
108 -10 13 -71 70 -134 126 -304 269 -595 447 -955 581 -221 82 -382 120 -742
174 -66 10 -524 16 -534 7z"/>
</g>
</svg>
